<mxfile host="Electron" modified="2023-07-14T07:40:43.461Z" agent="Mozilla/5.0 (Windows NT 10.0; Win64; x64) AppleWebKit/537.36 (KHTML, like Gecko) draw.io/21.6.1 Chrome/112.0.5615.204 Electron/24.6.1 Safari/537.36" etag="hnRWXZrfcwTZ_NfpZRoP" version="21.6.1" type="device">
  <diagram id="R8IManyunNIVjVqLJccc" name="Page-1">
    <mxGraphModel dx="889" dy="901" grid="0" gridSize="10" guides="1" tooltips="1" connect="1" arrows="1" fold="1" page="1" pageScale="1" pageWidth="827" pageHeight="1169" background="none" math="0" shadow="0">
      <root>
        <mxCell id="0" />
        <mxCell id="1" parent="0" />
        <mxCell id="GEHMYcxO5HRSC29tYzFS-1" value="&lt;p style=&quot;margin: 0px ; margin-top: 4px ; text-align: center&quot;&gt;&lt;b&gt;&amp;lt;&amp;lt;factory&amp;gt;&amp;gt;&lt;/b&gt;&lt;/p&gt;&lt;p style=&quot;margin: 0px ; margin-top: 4px ; text-align: center&quot;&gt;&lt;b&gt;EnemyShipFactory&lt;/b&gt;&lt;br&gt;&lt;/p&gt;&lt;hr size=&quot;1&quot;&gt;&lt;p style=&quot;margin: 0px ; margin-left: 4px&quot;&gt;&lt;/p&gt;&lt;p style=&quot;margin: 0px ; margin-left: 4px&quot;&gt;+ MakeEnemyShip(String): Ship&lt;/p&gt;&lt;p style=&quot;margin: 0px ; margin-left: 4px&quot;&gt;&lt;br&gt;&lt;/p&gt;" style="verticalAlign=top;align=left;overflow=fill;fontSize=12;fontFamily=Helvetica;html=1;rounded=0;sketch=0;labelBackgroundColor=none;fillColor=#d5e8d4;strokeColor=#82b366;" parent="1" vertex="1">
          <mxGeometry x="38" y="195.5" width="210" height="76.5" as="geometry" />
        </mxCell>
        <mxCell id="GEHMYcxO5HRSC29tYzFS-5" value="&lt;p style=&quot;margin: 0px ; margin-top: 4px ; text-align: center&quot;&gt;&lt;b&gt;&amp;lt;&amp;lt;abstract&amp;gt;&amp;gt;&lt;/b&gt;&lt;/p&gt;&lt;p style=&quot;margin: 0px ; margin-top: 4px ; text-align: center&quot;&gt;&lt;b&gt;EnemyShip&lt;/b&gt;&lt;br&gt;&lt;/p&gt;&lt;hr size=&quot;1&quot;&gt;&lt;p style=&quot;margin: 0px ; margin-left: 4px&quot;&gt;- Name: string&lt;/p&gt;&lt;p style=&quot;margin: 0px ; margin-left: 4px&quot;&gt;- AmtDamage: double&lt;/p&gt;&lt;hr size=&quot;1&quot;&gt;&lt;p style=&quot;margin: 0px ; margin-left: 4px&quot;&gt;&lt;span style=&quot;background-color: initial;&quot;&gt;+ FollowHeroShip(): void&lt;/span&gt;&lt;br&gt;&lt;/p&gt;&lt;p style=&quot;margin: 0px ; margin-left: 4px&quot;&gt;+ DisplayEnemyShip(): void&lt;br&gt;&lt;/p&gt;&amp;nbsp;+ EnemyShipShoots(): void" style="verticalAlign=top;align=left;overflow=fill;fontSize=12;fontFamily=Helvetica;html=1;rounded=0;sketch=0;labelBackgroundColor=none;fillColor=#d5e8d4;strokeColor=#82b366;" parent="1" vertex="1">
          <mxGeometry x="313" y="195.5" width="210" height="143.5" as="geometry" />
        </mxCell>
        <mxCell id="GEHMYcxO5HRSC29tYzFS-6" value="&lt;p style=&quot;margin: 0px ; margin-top: 4px ; text-align: center&quot;&gt;&lt;b style=&quot;background-color: initial;&quot;&gt;&amp;lt;&amp;lt;Concrete&amp;gt;&amp;gt;&lt;/b&gt;&lt;/p&gt;&lt;p style=&quot;margin: 0px ; margin-top: 4px ; text-align: center&quot;&gt;&lt;b style=&quot;background-color: initial;&quot;&gt;UFOEnemyShip&lt;/b&gt;&lt;br&gt;&lt;/p&gt;&lt;hr size=&quot;1&quot;&gt;&lt;p style=&quot;margin: 0px ; margin-left: 4px&quot;&gt;&lt;br&gt;&lt;/p&gt;" style="verticalAlign=top;align=left;overflow=fill;fontSize=12;fontFamily=Helvetica;html=1;rounded=0;sketch=0;labelBackgroundColor=none;fillColor=#d5e8d4;strokeColor=#82b366;" parent="1" vertex="1">
          <mxGeometry x="572" y="195.5" width="210" height="66.5" as="geometry" />
        </mxCell>
        <mxCell id="GEHMYcxO5HRSC29tYzFS-7" value="&lt;p style=&quot;margin: 0px ; margin-top: 4px ; text-align: center&quot;&gt;&lt;b style=&quot;border-color: var(--border-color); background-color: initial;&quot;&gt;&amp;lt;&amp;lt;Concrete&amp;gt;&amp;gt;&lt;/b&gt;&lt;b style=&quot;background-color: initial;&quot;&gt;&lt;br&gt;&lt;/b&gt;&lt;/p&gt;&lt;p style=&quot;margin: 0px ; margin-top: 4px ; text-align: center&quot;&gt;&lt;b style=&quot;background-color: initial;&quot;&gt;RocketEnemyShip&lt;/b&gt;&lt;br&gt;&lt;/p&gt;&lt;hr size=&quot;1&quot;&gt;&lt;p style=&quot;margin: 0px ; margin-left: 4px&quot;&gt;&lt;br&gt;&lt;/p&gt;" style="verticalAlign=top;align=left;overflow=fill;fontSize=12;fontFamily=Helvetica;html=1;rounded=0;sketch=0;labelBackgroundColor=none;fillColor=#d5e8d4;strokeColor=#82b366;" parent="1" vertex="1">
          <mxGeometry x="572" y="273" width="210" height="66" as="geometry" />
        </mxCell>
        <mxCell id="GEHMYcxO5HRSC29tYzFS-10" value="&lt;p style=&quot;margin: 0px ; margin-top: 4px ; text-align: center&quot;&gt;&lt;b&gt;&amp;lt;&amp;lt;Client&amp;gt;&amp;gt;&lt;/b&gt;&lt;/p&gt;&lt;p style=&quot;margin: 0px ; margin-top: 4px ; text-align: center&quot;&gt;&lt;b&gt;Program.cs&lt;/b&gt;&lt;br&gt;&lt;/p&gt;&lt;hr size=&quot;1&quot;&gt;&lt;p style=&quot;margin: 0px ; margin-left: 4px&quot;&gt;&lt;br&gt;&lt;/p&gt;&lt;hr size=&quot;1&quot;&gt;&lt;p style=&quot;margin: 0px ; margin-left: 4px&quot;&gt;exempel kod:&lt;/p&gt;&lt;p style=&quot;margin: 0px ; margin-left: 4px&quot;&gt;&lt;b&gt;var myEnemyShipFactory = new EnemyShipFactory();&lt;/b&gt;&lt;/p&gt;&lt;p style=&quot;margin: 0px ; margin-left: 4px&quot;&gt;&lt;b&gt;var theEnemy = myEnemyShipFactory.MakeEnemyShip(enemyShipChosen);&lt;/b&gt;&lt;/p&gt;&lt;p style=&quot;margin: 0px ; margin-left: 4px&quot;&gt;&lt;br&gt;&lt;/p&gt;" style="verticalAlign=top;align=left;overflow=fill;fontSize=12;fontFamily=Helvetica;html=1;rounded=0;sketch=0;labelBackgroundColor=none;fillColor=#d5e8d4;strokeColor=#82b366;" parent="1" vertex="1">
          <mxGeometry x="38" y="413" width="450" height="148" as="geometry" />
        </mxCell>
        <mxCell id="GEHMYcxO5HRSC29tYzFS-11" value="" style="endArrow=classic;html=1;rounded=0;entryX=0.47;entryY=1;entryDx=0;entryDy=0;entryPerimeter=0;exitX=0.5;exitY=0;exitDx=0;exitDy=0;" parent="1" source="GEHMYcxO5HRSC29tYzFS-10" target="GEHMYcxO5HRSC29tYzFS-1" edge="1">
          <mxGeometry width="50" height="50" relative="1" as="geometry">
            <mxPoint x="378" y="435" as="sourcePoint" />
            <mxPoint x="428" y="385" as="targetPoint" />
          </mxGeometry>
        </mxCell>
        <mxCell id="GEHMYcxO5HRSC29tYzFS-12" value="1" style="endArrow=open;html=1;endSize=12;startArrow=diamondThin;startSize=14;startFill=1;align=left;verticalAlign=bottom;rounded=0;entryX=0;entryY=0.5;entryDx=0;entryDy=0;exitX=1;exitY=0.5;exitDx=0;exitDy=0;" parent="1" source="GEHMYcxO5HRSC29tYzFS-1" target="GEHMYcxO5HRSC29tYzFS-5" edge="1">
          <mxGeometry x="-1" y="3" relative="1" as="geometry">
            <mxPoint x="323" y="410" as="sourcePoint" />
            <mxPoint x="483" y="410" as="targetPoint" />
          </mxGeometry>
        </mxCell>
        <mxCell id="GEHMYcxO5HRSC29tYzFS-16" value="" style="endArrow=block;dashed=1;endFill=0;endSize=12;html=1;rounded=0;entryX=1;entryY=0.75;entryDx=0;entryDy=0;" parent="1" source="GEHMYcxO5HRSC29tYzFS-7" target="GEHMYcxO5HRSC29tYzFS-5" edge="1">
          <mxGeometry width="160" relative="1" as="geometry">
            <mxPoint x="582" y="444" as="sourcePoint" />
            <mxPoint x="460" y="305" as="targetPoint" />
          </mxGeometry>
        </mxCell>
        <mxCell id="GEHMYcxO5HRSC29tYzFS-17" value="" style="endArrow=block;dashed=1;endFill=0;endSize=12;html=1;rounded=0;entryX=1;entryY=0.5;entryDx=0;entryDy=0;exitX=0.003;exitY=0.613;exitDx=0;exitDy=0;exitPerimeter=0;" parent="1" source="GEHMYcxO5HRSC29tYzFS-6" target="GEHMYcxO5HRSC29tYzFS-5" edge="1">
          <mxGeometry width="160" relative="1" as="geometry">
            <mxPoint x="582" y="321" as="sourcePoint" />
            <mxPoint x="533" y="304" as="targetPoint" />
          </mxGeometry>
        </mxCell>
        <mxCell id="GEHMYcxO5HRSC29tYzFS-18" value="Factory Pattern&lt;br&gt;UFO" style="text;strokeColor=none;fillColor=none;html=1;fontSize=24;fontStyle=1;verticalAlign=middle;align=center;" parent="1" vertex="1">
          <mxGeometry x="231" y="51" width="384" height="82" as="geometry" />
        </mxCell>
      </root>
    </mxGraphModel>
  </diagram>
</mxfile>
